<?xml version="1.0" encoding="utf-8"?>
<svg xmlns="http://www.w3.org/2000/svg" fill="none" height="16" viewBox="0 0 16 16" width="16">
  <g opacity="0.8">
    <path d="M6.50001 12C6.36749 11.9982 6.24042 11.9469 6.14376 11.8562L2.64376 8.35623C2.56403 8.25908 2.52328 8.13575 2.52945 8.01023C2.53561 7.8847 2.58825 7.76595 2.67712 7.67709C2.76598 7.58822 2.88473 7.53558 3.01026 7.52942C3.13578 7.52325 3.25911 7.564 3.35626 7.64373L6.50001 10.7937L13.1438 4.14373C13.2409 4.064 13.3642 4.02325 13.4898 4.02942C13.6153 4.03558 13.734 4.08822 13.8229 4.17709C13.9118 4.26595 13.9644 4.3847 13.9706 4.51023C13.9767 4.63575 13.936 4.75908 13.8563 4.85623L6.85626 11.8562C6.7596 11.9469 6.63254 11.9982 6.50001 12Z" fill="white"/>
  </g>
</svg>